# xmcd
#
# Track frame offsets:
#	150
#	18748
#	35562
#	52263
#	71362
#	88981
#	104963
#	121128
#	137490
#	155444
#	168203
#	187027
#	204169
#
# Disc length: 2913 seconds
#
# Revision: 0
# Processed by: cddbd v1.5.2PL0 Copyright (c) Steve Scherf et al.
# Submitted via: dBpowerAMP V4.0
#
DISCID=ba0b5f0d
DTITLE=Barýs Akarsu - Dusmeden Bulutlarda Kosmam Gerek
DYEAR=2007
DGENRE=Ballad
TTITLE0=Vurdum En Dibe Kadar
TTITLE1=Vazgeçme
TTITLE2=Yaza Demedim
TTITLE3=Adýný Çýkar Deliye
TTITLE4=Ben
TTITLE5=Rapatma
TTITLE6=Yazdan Kalma
TTITLE7=Yalan Dünya
TTITLE8=Zümrüt-ü Anka
TTITLE9=Yeter Be
TTITLE10=Kayboldum
TTITLE11=Ben
TTITLE12=Yalancý Yarim
EXTD=
EXTT0=
EXTT1=
EXTT2=
EXTT3=
EXTT4=
EXTT5=
EXTT6=
EXTT7=
EXTT8=
EXTT9=
EXTT10=
EXTT11=
EXTT12=
PLAYORDER=
